<?xml version="1.0" encoding="utf-8"?>
<!-- Generator: Adobe Illustrator 24.1.0, SVG Export Plug-In . SVG Version: 6.00 Build 0)  -->
<svg version="1.1" id="Layer_1" xmlns="http://www.w3.org/2000/svg" xmlns:xlink="http://www.w3.org/1999/xlink" x="0px" y="0px"
	 viewBox="0 0 1792 1792" style="enable-background:new 0 0 1792 1792;" xml:space="preserve">
<style type="text/css">
	.st0{fill:#F88CA0;}
</style>
<path class="st0" d="M1408,960V832c0-17.3-6.3-32.3-19-45s-27.7-19-45-19H842l189-189c12.7-12.7,19-27.7,19-45s-6.3-32.3-19-45
	l-91-91c-12-12-27-18-45-18s-33,6-45,18L488,760l-91,91c-12,12-18,27-18,45s6,33,18,45l91,91l362,362c12,12,27,18,45,18s33-6,45-18
	l91-91c12-12,18-27,18-45s-6-33-18-45l-189-189h502c17.3,0,32.3-6.3,45-19S1408,977.3,1408,960z M1664,896
	c0,139.3-34.3,267.8-103,385.5s-161.8,210.8-279.5,279.5s-246.2,103-385.5,103s-267.8-34.3-385.5-103S299.7,1399.2,231,1281.5
	S128,1035.3,128,896s34.3-267.8,103-385.5S392.8,299.7,510.5,231S756.7,128,896,128s267.8,34.3,385.5,103s210.8,161.8,279.5,279.5
	S1664,756.7,1664,896z"/>
</svg>
