<?xml version="1.0" encoding="utf-8"?>
<!-- Generator: Adobe Illustrator 24.1.0, SVG Export Plug-In . SVG Version: 6.00 Build 0)  -->
<svg version="1.1" id="Layer_1" xmlns="http://www.w3.org/2000/svg" xmlns:xlink="http://www.w3.org/1999/xlink" x="0px" y="0px"
	 viewBox="0 0 1792 1792" style="enable-background:new 0 0 1792 1792;" xml:space="preserve">
<style type="text/css">
	.st0{fill:#F88CA0;}
	.st1{fill:#12B069;}
	.st2{fill:#F63A2C;}
	.st3{fill:#0052F7;}
	.st4{fill:#FFB61A;}
</style>
<path class="st0" d="M1561,510.5c-68.7-117.7-161.8-210.8-279.5-279.5S1035.3,128,896,128s-267.8,34.3-385.5,103
	S299.7,392.8,231,510.5S128,756.7,128,896s34.3,267.8,103,385.5s161.8,210.8,279.5,279.5s246.2,103,385.5,103s267.8-34.3,385.5-103
	s210.8-161.8,279.5-279.5s103-246.2,103-385.5S1629.7,628.2,1561,510.5z"/>
<rect x="464" y="626" class="st1" width="432" height="360"/>
<rect x="464" y="986" class="st2" width="432" height="360"/>
<rect x="896" y="446" class="st3" width="432" height="360"/>
<rect x="896" y="806" class="st4" width="432" height="360"/>
</svg>
