<?xml version="1.0" encoding="utf-8"?>
<!-- Generator: Adobe Illustrator 24.1.0, SVG Export Plug-In . SVG Version: 6.00 Build 0)  -->
<svg version="1.1" xmlns="http://www.w3.org/2000/svg" xmlns:xlink="http://www.w3.org/1999/xlink" x="0px" y="0px"
	 viewBox="0 0 299.9 296.3" style="enable-background:new 0 0 299.9 296.3;" xml:space="preserve">
<style type="text/css">
	.st0{display:none;}
	.st1{fill:#F88CA0;}
	.st2{fill:#FFFFFF;}
	.st3{font-family:'MarkerFelt-Wide';}
	.st4{font-size:27px;}
</style>
<g id="Layer_1" class="st0">
	
		<image style="display:inline;overflow:visible;" width="1042" height="1042" xlink:href="../../../Downloads/iconfinder_Quiz-Games-red_190299.png"  transform="matrix(0.24 0 0 0.24 20.3491 7.9313)">
	</image>
</g>
<g id="Layer_2">
	<circle class="st1" cx="145.4" cy="137" r="125"/>
</g>
<g id="Layer_3">
	<path class="st2" d="M70.5,146.5H83c0,0-1.2-3.3,0.9-7c2.1-3.6,9-12.4,8.5-19.7s-6.7-15.2-14.9-15.2c-11.3,0-15.1,5-15.1,5l3.1,9.1
		c0,0,10.9-7.4,15,0c3.6,6.5-4.2,14.2-8.3,20.7C69.9,143,70.5,146.5,70.5,146.5z"/>
	<circle class="st2" cx="76.7" cy="159.5" r="7.9"/>
</g>
<g id="Layer_4">
	<polygon class="st2" points="213.3,59.1 133.3,59.1 133.3,58.7 132.6,59.1 132.5,59.1 132.5,59.2 118.6,67.2 103.9,75.7 
		118.6,84.2 132.5,92.2 132.5,92.3 132.6,92.3 133.3,92.7 133.3,92.3 213.3,92.3 	"/>
	<polygon class="st2" points="213.3,101 133.3,101 133.3,100.6 132.6,101 132.5,101 132.5,101.1 118.6,109.1 103.9,117.6 
		118.6,126.1 132.5,134.1 132.5,134.2 132.6,134.2 133.3,134.6 133.3,134.2 213.3,134.2 	"/>
	<polygon class="st2" points="213.3,142.9 133.3,142.9 133.3,142.5 132.6,142.9 132.5,142.9 132.5,143 118.6,151 103.9,159.5 
		118.6,168 132.5,176 132.5,176 132.6,176 133.3,176.5 133.3,176 213.3,176 	"/>
	<polygon class="st2" points="213.3,184.8 133.3,184.8 133.3,184.4 132.6,184.8 132.5,184.8 132.5,184.9 118.6,192.9 103.9,201.4 
		118.6,209.9 132.5,217.9 132.5,217.9 132.6,217.9 133.3,218.4 133.3,217.9 213.3,217.9 	"/>
	<rect x="123.7" y="54.7" class="st1" width="20.4" height="4.4"/>
	<rect x="129.3" y="92.3" class="st1" width="14.3" height="3.9"/>
	<rect x="129.3" y="97.1" class="st1" width="14.3" height="3.9"/>
	<rect x="129.3" y="134.2" class="st1" width="14.3" height="3.9"/>
	<rect x="129.3" y="139" class="st1" width="14.3" height="3.9"/>
	<rect x="130.9" y="176.1" class="st1" width="5.1" height="1.7"/>
	<rect x="130.6" y="183.1" class="st1" width="5.1" height="1.7"/>
	<rect x="131.8" y="217.9" class="st1" width="2.3" height="1.1"/>
</g>
<g id="Layer_5">
	<text transform="matrix(1 0 0 1 135.8774 86.1759)" class="st1 st3 st4">A.</text>
	<text transform="matrix(1 0 0 1 135.8773 128.0692)" class="st1 st3 st4">B.</text>
	<text transform="matrix(1 0 0 1 135.8772 169.9624)" class="st1 st3 st4">C.</text>
	<text transform="matrix(1 0 0 1 135.8775 210.1665)" class="st1 st3 st4">D.</text>
</g>
</svg>
